<?xml version="1.0" encoding="UTF-8" standalone="no" ?>
<svg xmlns="http://www.w3.org/2000/svg"
	 xml:space="preserve"
	 width="456"
	 height="456"
	 viewBox="0 0 456 456"
	 version="1.1">
<path style="fill:#ffffff;fill-opacity:1;stroke:#ffffff;stroke-width:2.51152039;stroke-linecap:round;stroke-linejoin:round;stroke-miterlimit:4;stroke-opacity:1;stroke-dasharray:none"
	  d="m 265.5498,114.02703 c -4.60477,-2.40193 -14.76615,-5.14184 -11.92399,1.26851 14.53899,23.20178 6.20235,28.23235 7.86476,24.98963 -13.31935,3.80553 -36.99498,33.65971 -61.20558,33.4774 27.59008,24.21727 45.96761,9.65653 45.96761,9.65653 10.03708,22.82856 -1.14699,29.98962 -17.1408,31.57225 -15.99381,1.58262 -37.1462,-2.54003 -46.4908,-2.27429 -9.3446,0.26574 -21.61284,1.29507 -31.33664,6.36588 0,0 -16.85639,-2.08341 -27.42705,-12.83528 -8.33454,-8.4774 13.17391,33.25539 13.17391,33.25539 0.40706,25.71309 9.15185,42.85517 9.15185,42.85517 3.26132,6.49482 -0.58176,17.31783 -2.28332,22.83317 l 0.2537,38.56268 19.53505,-0.5074 -0.76111,-23.08687 c 0,0 0.3252,-14.77366 7.4842,-25.11648 -0.85121,14.16169 4.12527,25.40135 1.64907,43.38302 0,0 19.37768,-0.0755 19.28134,-0.50741 -4.57982,-20.53061 1.45407,-44.48834 1.45407,-44.48834 27.90249,2.76363 40.02619,-2.70021 40.02619,-2.70021 3.67868,24.60909 2.91595,16.16707 4.43978,52.26259 0.0322,0.76202 18.45681,0.0634 18.45681,0.0634 -1.83084,-38.46519 -1.07823,-50.39153 -1.07823,-50.39153 0,0 7.07957,22.00956 11.28973,43.22446 0.20183,1.01702 20.22972,0.62063 19.78875,-0.76111 -15.52109,-48.63347 -12.00648,-68.44835 -12.00648,-68.44835 4.02756,-4.76291 19.04812,-26.61291 19.61753,-49.06496 12.41614,3.18943 40.57755,8.14059 41.38512,-7.26222 6.9948,-2.89175 13.74224,-7.38247 12.78023,-14.88735 -1.24452,-9.70883 -13.57295,-14.65777 -21.83716,-27.7483 17.33209,2.21943 24.36401,0.37418 19.26254,-1.1096 -7.21073,-2.09728 -21.00177,-9.77508 -21.00177,-9.77508 0.0753,-5.65666 -7.70818,-11.09373 -7.70818,-11.09373 3.34272,-13.11029 -11.90171,-24.59776 -19.68763,-29.60641 -4.60478,-2.40193 -14.76615,-5.14185 -11.924,1.2685 14.539,23.20179 8.86622,19.60649 10.59125,20.87788 -7.40182,-2.02295 -7.52685,-1.62342 -7.52685,-1.62342 -3.65018,-9.81069 -14.32798,-17.61948 -22.1139,-22.62814 z" />
</svg>
