<?xml version="1.0" encoding="UTF-8" standalone="no"?>
<svg
	xmlns="http://www.w3.org/2000/svg"
	width="456"
	height="456"
	viewBox="0 0 456 456"
	version="1.1"
	xml:space="preserve"
	style="fill-rule:evenodd;clip-rule:evenodd;stroke-linejoin:round;stroke-miterlimit:2;">
	<path
	d="m 105.50037,281.60863 c -2.70293,0 -5.00091,-0.90042 -6.893127,-2.70209 -1.892214,-1.84778 -2.837901,-4.04181 -2.837901,-6.58209 0,-2.58722 0.945687,-4.80389 2.837901,-6.65167 1.892217,-1.84778 4.190197,-2.77167 6.893127,-2.77167 2.74819,0 5.06798,0.92389 6.96019,2.77167 1.93749,1.84778 2.90581,4.06445 2.90581,6.65167 0,2.54028 -0.96832,4.73431 -2.90581,6.58209 -1.89221,1.80167 -4.212,2.70209 -6.96019,2.70209 z"
	style="fill:#ffffff;fill-rule:nonzero;stroke-width:0.838376"
	id="path4" />
	<path
	d="M 213.56111,280.08446 H 195.99044 L 149.69953,207.0544 c -1.17121,-1.84778 -2.14037,-3.76515 -2.90581,-5.75126 h -0.40578 c 0.36051,2.12528 0.54076,6.67515 0.54076,13.6496 v 65.13172 h -15.54349 v -99.36009 h 18.71925 l 44.7374,71.29798 c 1.89222,2.95695 3.1087,4.98917 3.64945,6.09751 h 0.26996 c -0.45021,-2.6325 -0.67573,-7.09015 -0.67573,-13.37293 v -64.02256 h 15.47557 z"
	style="fill:#ffffff;fill-rule:nonzero;stroke-width:0.838376"
	id="path6" />
	<path
	d="m 289.25134,280.08446 h -54.40052 v -99.36009 h 52.23835 v 13.99669 h -36.15411 v 28.13085 h 33.31621 v 13.9271 h -33.31621 v 29.37835 h 38.31628 z"
	style="fill:#ffffff;fill-rule:nonzero;stroke-width:0.838376"
	id="path8" />
	<path
	d="M 366.56466,194.72106 H 338.7222 v 85.3634 h -16.08423 v -85.3634 h -27.77455 v -13.99669 h 71.70124 z"
	style="fill:#ffffff;fill-rule:nonzero;stroke-width:0.838376"
	id="path10" />
<path
	style="fill:#ffffff;fill-opacity:1;stroke:#ffffff;stroke-width:1.32759404;stroke-linecap:round;stroke-linejoin:round;stroke-miterlimit:4;stroke-opacity:1;stroke-dasharray:none"
	d="m 261.59898,40.207167 c -2.43409,-1.269662 -7.80541,-2.717987 -6.30304,0.67054 7.68533,12.264504 3.27857,14.923669 4.15733,13.209564 -7.04064,2.011609 -19.55561,17.79258 -32.35338,17.696211 14.58416,12.801291 24.29856,5.104455 24.29856,5.104455 5.30561,12.067219 -0.6063,15.852567 -9.06066,16.689145 -8.45435,0.836581 -19.63554,-1.342663 -24.57511,-1.202192 -4.93957,0.14047 -11.42459,0.684576 -16.5646,3.365015 0,0 -8.91032,-1.101295 -14.49799,-6.784751 -4.40565,-4.48117 6.96376,17.578856 6.96376,17.578856 0.21516,13.59199 4.83767,22.65332 4.83767,22.65332 1.72395,3.43317 -0.30752,9.15423 -1.20696,12.06965 l 0.13411,20.3843 10.32626,-0.26821 -0.40233,-12.20376 c 0,0 0.1719,-7.80938 3.95617,-13.27662 -0.44996,7.4859 2.18062,13.4272 0.87169,22.93233 0,0 10.24308,-0.0399 10.19215,-0.26821 -2.4209,-10.85251 0.76862,-23.51661 0.76862,-23.51661 14.74931,1.46086 21.15792,-1.42733 21.15792,-1.42733 1.94456,13.0084 1.54137,8.54594 2.34688,27.62609 0.017,0.4028 9.7563,0.0335 9.7563,0.0335 -0.96779,-20.33276 -0.56996,-26.63705 -0.56996,-26.63705 0,0 3.74227,11.63429 5.96777,22.84852 0.10669,0.5376 10.69347,0.32806 10.46037,-0.40232 -8.20447,-25.70773 -6.34664,-36.18191 -6.34664,-36.18191 2.12897,-2.51769 10.06886,-14.06763 10.36985,-25.935828 6.5632,1.685938 21.44937,4.303128 21.87625,-3.838821 3.69746,-1.528584 7.26417,-3.902386 6.75565,-7.869478 -0.65785,-5.132106 -7.17469,-7.748123 -11.54316,-14.6678 9.16177,1.173192 12.87886,0.197793 10.18221,-0.586539 -3.81161,-1.108623 -11.10157,-5.167118 -11.10157,-5.167118 0.0398,-2.990125 -4.07455,-5.86417 -4.07455,-5.86417 1.76696,-6.930116 -6.29127,-13.002415 -10.40692,-15.650003 -2.43409,-1.269661 -7.80542,-2.717986 -6.30304,0.670541 7.68533,12.264504 4.68669,10.364024 5.59854,11.036082 -3.91261,-1.069335 -3.9787,-0.858145 -3.9787,-0.858145 -1.92949,-5.185959 -7.57379,-9.3137 -11.68945,-11.961287 z"
	/></svg>